/* XPM */
static char *_520887200427[] = {
/* columns rows colors chars-per-pixel */
"16 16 188 2 ",
"   c #1D271D",
".  c #363C1A",
"X  c #262320",
"o  c #212620",
"O  c #212720",
"+  c #262422",
"@  c #262424",
"#  c #262524",
"$  c #252625",
"%  c #242526",
"&  c #242527",
"*  c #242627",
"=  c gray15",
"-  c #2A2825",
";  c #292826",
":  c #2D2B25",
">  c #242628",
",  c #3E3923",
"<  c #242930",
"1  c #262D36",
"2  c #29323D",
"3  c #29333F",
"4  c #553E1E",
"5  c #443B21",
"6  c #57421E",
"7  c #66521C",
"8  c #6B571A",
"9  c #665C1D",
"0  c #775F17",
"q  c #705818",
"w  c #7A6516",
"e  c #7C6B19",
"r  c #4D4720",
"t  c #935F14",
"y  c #AD5603",
"u  c #896618",
"i  c #9E6B12",
"p  c #8E7D17",
"a  c #817218",
"s  c #967314",
"d  c #9E7F14",
"f  c #BD6502",
"g  c #BB6705",
"h  c #BC6904",
"j  c #A37011",
"k  c #A77312",
"l  c #A17714",
"z  c #AA7E13",
"x  c #C16A03",
"c  c #C27406",
"v  c #C47406",
"b  c #C57606",
"n  c #CC7305",
"m  c #C2740D",
"M  c #CC790C",
"N  c #DF7D08",
"B  c #BA870A",
"V  c #B08112",
"C  c #CF8207",
"Z  c #CE8707",
"A  c #C38A0F",
"S  c #CC890A",
"D  c #CB8C0F",
"F  c #D58906",
"G  c #DD8B02",
"H  c #D88A04",
"J  c #DF880F",
"K  c #D99006",
"L  c #DA9C07",
"P  c #DD9A0D",
"I  c #DA9911",
"U  c #EC8F06",
"Y  c #E4840B",
"T  c #E3820D",
"R  c #E3860E",
"E  c #E9840C",
"W  c #E3890A",
"Q  c #E6890A",
"!  c #E28E0F",
"~  c #EA8909",
"^  c #E88D0A",
"/  c #F78F03",
"(  c #F28B07",
")  c #EC9E03",
"_  c #EA9F04",
"`  c #E5920F",
"'  c #E89308",
"]  c #E09A0F",
"[  c #E99C0C",
"{  c #F49603",
"}  c #F49703",
"|  c #F29307",
" . c #F99201",
".. c #FF9300",
"X. c #FD9601",
"o. c #FE9601",
"O. c #F79A03",
"+. c #F19F02",
"@. c #F29E02",
"#. c #F79C02",
"$. c #F69D03",
"%. c #F69E03",
"&. c #F79F03",
"*. c #F19D05",
"=. c #F99902",
"-. c #F89903",
";. c #FD9800",
":. c #FD9F01",
">. c #D8A80C",
",. c #D0B011",
"<. c #EDA506",
"1. c #E7A70A",
"2. c #EAA10A",
"3. c #EAA10B",
"4. c #EEA008",
"5. c #ECA309",
"6. c #ECA00A",
"7. c #EAA909",
"8. c #ECAF09",
"9. c #F3A006",
"0. c #F4A205",
"q. c #FAA301",
"w. c #FFA000",
"e. c #FAA501",
"r. c #FBA601",
"t. c #F9A503",
"y. c #FBA402",
"u. c #FAA502",
"i. c #FBA603",
"p. c #FAA703",
"a. c #FCA501",
"s. c #FDA601",
"d. c #FDA701",
"f. c #FEA700",
"g. c #FCA603",
"h. c #F9A105",
"j. c #FCA705",
"k. c #F4AB02",
"l. c #F7AF03",
"z. c #F9AA00",
"x. c #FBA903",
"c. c #FDA901",
"v. c #FFAB00",
"b. c #FBAF01",
"n. c #F8AE03",
"m. c #FAAF03",
"M. c #FFAD00",
"N. c #FFAC01",
"B. c #FFAF00",
"V. c #FEAE01",
"C. c #F1A10B",
"Z. c #F3AD08",
"A. c #F3AE08",
"S. c #EFB309",
"D. c #E8B60E",
"F. c #E7BA0B",
"G. c #F4B007",
"H. c #F4B107",
"J. c #FFB300",
"K. c #FFB400",
"L. c #FFB600",
"P. c #FEB601",
"I. c #FBB304",
"U. c #F7BA03",
"Y. c #F5BD05",
"T. c #FBBA02",
"R. c #FFB900",
"E. c #FBBA04",
"W. c #E0A912",
"Q. c #E3AB12",
"!. c #E4B412",
"~. c #E1BA14",
"^. c #F6C103",
"/. c #F7C407",
"(. c #FAC203",
"). c #FEC000",
"_. c #FFC000",
"`. c #FFC100",
"'. c #F7CB07",
"]. c #FDCA01",
"[. c #F4CD0A",
"{. c #F7D107",
"}. c #FAD201",
"|. c #FCD702",
" X c #FFDC00",
".X c #FFDE00",
"XX c #FDDD02",
"oX c None",
/* pixels */
"oX3 = = = = = = # = = = = = 3 oX",
"1 X = = : 7 s z d 0 , = = = # < ",
"= = = 9 ,./.x.X.;.n.F.p - = = = ",
"> = e [.L.;. .%.n.]..X{.V - = % ",
"> 6 Z.:./ } r.c.j.[ Y.`.h.t = % ",
"> m X.O.h.V.L.I.M n g.} ..*.5 % ",
"> $.V.0.V.L.R.`.v F J.%.r.E.a % ",
"> T.(.t.J.l.] 7.Z <.L.h.U..Xd % ",
"= |.}.r.R.H S D L f J.g.^..Xk = ",
"% '.S.h.x.v 1.I P y G c.G.A.i % ",
"> 5.^ O.9.C x v h K ) r.0.Y w % ",
"> B Y ` r.+.h _ k.L.g.| T [ . % ",
"> r 7.Q.!.G.r.V.g.O.( Y ! u = % ",
"= = 8 D.~.W.2.' ~ E J C.j = = % ",
"1 # = 4 A 5.U N W 2.>.q = = # < ",
"oX3 = = = = O     O = = = = 3 oX"
};
