/* XPM */
static char *_520887192889[] = {
/* columns rows colors chars-per-pixel */
"64 64 227 2 ",
"   c #1E2125",
".  c #1F252D",
"X  c #262626",
"o  c #282727",
"O  c #2C2A25",
"+  c #27282A",
"@  c #282A2C",
"#  c #272729",
"$  c #322D24",
"%  c #353123",
"&  c #3A3423",
"*  c #232B34",
"=  c #292F37",
"-  c #2A323D",
";  c #513C1E",
":  c #423B22",
">  c #534B1F",
",  c #5B4E1D",
"<  c #54441E",
"1  c #5D551E",
"2  c #4D431F",
"3  c #6D4B19",
"4  c #654A1B",
"5  c #794E18",
"6  c #6C5D1C",
"7  c #64541C",
"8  c #7A5D17",
"9  c #776519",
"0  c #6B661D",
"q  c #4B4621",
"w  c #5E5720",
"e  c #253142",
"r  c #2A3544",
"t  c #2A3D55",
"y  c #2C415C",
"u  c #9C4201",
"i  c #9D4A04",
"p  c #964709",
"a  c #9C530A",
"s  c #8B5815",
"d  c #A34B02",
"f  c #AA4D00",
"g  c #A44904",
"h  c #AD5301",
"j  c #A3550B",
"k  c #A55909",
"l  c #AA5E09",
"z  c #A65305",
"x  c #B25500",
"c  c #B45901",
"v  c #B85D02",
"b  c #AE5B17",
"n  c #B65C12",
"m  c #836A16",
"M  c #936513",
"N  c #877715",
"B  c #957613",
"V  c #AD630C",
"C  c #AD690B",
"Z  c #A76F0F",
"A  c #BD6303",
"S  c #B7670C",
"D  c #AB7D0F",
"F  c #BC7A0D",
"G  c #B8760D",
"H  c #AA6714",
"J  c #B96717",
"K  c #B97619",
"L  c #A17710",
"P  c #AF6A23",
"I  c #B96B29",
"U  c #B97427",
"Y  c #AF732E",
"T  c #C36C05",
"R  c #C5720B",
"E  c #CB740D",
"W  c #C57B0D",
"Q  c #C77405",
"!  c #DC7C06",
"~  c #D67B07",
"^  c #C36B15",
"/  c #C57311",
"(  c #CA7918",
")  c #D57D1A",
"_  c #E87E06",
"`  c #C67623",
"'  c #D37C2A",
"]  c #938A14",
"[  c #AC820F",
"{  c #B7870D",
"}  c #B9900D",
"|  c #A48D11",
" . c #AA8210",
".. c #AB9A12",
"X. c #A79811",
"o. c #B9A60C",
"O. c #BCA411",
"+. c #BC8529",
"@. c #CC840C",
"#. c #C8880A",
"$. c #DC8D06",
"%. c #DD830A",
"&. c #D38D0C",
"*. c #DC8B0A",
"=. c #D88407",
"-. c #CC920A",
";. c #DD940A",
":. c #DD9A0C",
">. c #D79707",
",. c #C38C14",
"<. c #C98B18",
"1. c #D28414",
"2. c #D98715",
"3. c #CD9513",
"4. c #DF9715",
"5. c #E48304",
"6. c #EC8304",
"7. c #E58B05",
"8. c #EB8D05",
"9. c #E2850A",
"0. c #EC850A",
"q. c #E48D0A",
"w. c #EC8D0A",
"e. c #F48602",
"r. c #F38C05",
"t. c #FE8D00",
"y. c #F28B09",
"u. c #E59306",
"i. c #ED9305",
"p. c #E59A05",
"a. c #ED9B06",
"s. c #E4940A",
"d. c #EA930B",
"f. c #E59C0A",
"g. c #EB9C0B",
"h. c #F39404",
"j. c #FF9301",
"k. c #F49B04",
"l. c #FD9C01",
"z. c #F29C09",
"x. c #FC9A0A",
"c. c #EB8C16",
"v. c #F28C12",
"b. c #E69C12",
"n. c #E99B13",
"m. c #E89214",
"M. c #FB9812",
"N. c #C9A50C",
"B. c #DCA407",
"V. c #D7A409",
"C. c #C8B60C",
"Z. c #D7BB08",
"A. c #DDA810",
"S. c #EDA406",
"D. c #E4AC06",
"F. c #ECAC05",
"G. c #E4A40A",
"H. c #ECA40B",
"J. c #E5AB0B",
"K. c #EBAB0B",
"L. c #E0A406",
"P. c #F5A405",
"I. c #FEA501",
"U. c #F3AB05",
"Y. c #FFAC00",
"T. c #F3A40A",
"R. c #FBA30C",
"E. c #F2AC0B",
"W. c #FDAC0C",
"Q. c #E4BA05",
"!. c #E4B30D",
"~. c #ECB30D",
"^. c #ECBD0C",
"/. c #E8B906",
"(. c #F4B305",
"). c #FEB301",
"_. c #F4BC05",
"`. c #FFBB01",
"'. c #F1B40B",
"]. c #FAB409",
"[. c #F4BD0A",
"{. c #FCBB0B",
"}. c #E7A714",
"|. c #F3A51A",
" X c #E5B314",
".X c #E9B312",
"XX c #E4BB15",
"oX c #E7B916",
"OX c #F9B816",
"+X c #CE8729",
"@X c #D78C28",
"#X c #D49725",
"$X c #E49F2B",
"%X c #E6A521",
"&X c #F6B923",
"*X c #F4BC30",
"=X c #D2C20A",
"-X c #EAC305",
";X c #ECC60C",
":X c #E6CB07",
">X c #F4C305",
",X c #FEC301",
"<X c #F5CD05",
"1X c #FECB01",
"2X c #F3C40A",
"3X c #FDC30B",
"4X c #F5CA0A",
"5X c #FDCA0B",
"6X c #E9D20A",
"7X c #FED301",
"8X c #F5DA06",
"9X c #FEDB01",
"0X c #F5D30A",
"qX c #F8D309",
"wX c #E4C113",
"eX c #EBC212",
"rX c #EACB12",
"tX c #E4C119",
"yX c #F8C913",
"uX c #F6D315",
"iX c #EFD01B",
"pX c #FFE300",
"aX c #FFEA01",
"sX c #F8E40A",
"dX c #FFF101",
"fX c #FAC122",
"gX c None",
/* pixels */
"gXgXgXgXgXgXgXr = o X X X X X X X X X X X X X X X X X X X X X X X X X X X X X X X X X X X X X X X X X X X X + = r gXgXgXgXgXgXgX",
"gXgXgXgXgX- X X X X X X X X X X X X X X X X X X X X X X X X X X X X X X X X X X X X X X X + X X X X X X X X X X X X - gXgXgXgXgX",
"gXgXgXgXX X X X X X X X X X X X X X X X X X X X X X X X X X X X X X X X X X X # X X X X X X X X X X X X X X X X X X X X y gXgXgX",
"gXgXgXX X X X X X X X X X X X X X X X X X X X X X X X X X X X X X X X X X X X X X X X X X X X X X X X X X X + X X X X X X t gXgX",
"gXgX# X X X X X X X X X X X X X X X X X X X X X X X X X X X X X X X X X X X X X X X X X X X X X X X X X X X X X X X X X X # gXgX",
"gXr X X X X X X X X X X X X X X X X X X X X X X X X X X X X X X X X X X X X X X X X X X X X X X X X X X X X X X X X X X X X * gX",
"gX@ X X X X X X X X X X X X X X X X X X X X X X X X X X X # X X X X X X X X X X X X X X X X X X X X X X X X X X X X X X X X + gX",
"gXX X X X X X X X X X X X X X X X X X X X X X X X X X X X X X X X X X X X X X X X X X X X X X X X X X X X X X X X X X X X X o e ",
"- X X X X X X X X X X X X X X X X X X X X X X X X & 4 m D -.B.F.F.D.V.} B 8 2 X X X X X X X X X X X X X X X X X X X X X X X o * ",
". + X X X X X X X X X X X X X X X X X X X X O 6 [ B.{.(..X'.E.K.S.k.k.P.U.`.>XN.B q X X X X X X X X X X X X X X X X X X X X o   ",
". X X X X X X X X X X X X X X X X X X X $ 9 A.>X^.oXeX!..X].I.l.t.t.e.r.8.q.g.E.<X<X..> X X X X X X X X X X X X X X X X X X o   ",
". X X X X X X X X X X X X X X X X X X 6 N.<XwXwXrX<X7X,X).Y.l.j.t.j.l.I.I.Y.I.S.H..X<XsXX.: X X X X X # X X X X X X X X X X o   ",
". o X X X X X X X X X X X X X X + % | 8XtXtX0X9X7X,X).Y.l.j.t.j.j.l.I.I.Y.).).`.`.(.K. XqX:X6 X X X X X X X X X X X X X X X o   ",
". o X X X X X X X X X X X X X X q Z.uXtXrXpX7X,X`.Y.l.j.t.j.j.l.l.I.Y.).).).`.`.,X1X7X2X XoXqXB o X X X X X X X X X X X X X o   ",
". o X X X X X X X X X X X X X 1 :XrXwX8X9X1X`.).I.j.j.t.j.l.I.I.Y.).).).`.,X,X1X7X7X9XpXpXwX X{.[ O X X X X X X X X X X X X o   ",
". o X X X X X X X X X X X X , ;XwXeXpX1X`.).I.l.j.t.j.l.l.l.I.P.U.(.).,X1X1X1X7X7X9XpXpXaXpX;X}.].D O X X X X X X X X X X X o   ",
". o X X X X X X X X X X X q Q.oXeX7X,X`.Y.l.j.t.t.l.h.7.7.=.q.d.q.q.$.f.G.;X9XpXpXpXpXpX7X7X7X[.b.I.H X X X X X X X X X X X X   ",
". o X X X X X X X X X X $ V..X.X1X`.Y.l.j.t.t.l.h.9.9.i.l.I.I.I.I.I.I.l.h.q.:.wXaXpX9X7X1X,X,X,X'.m.j.5 X X X X X X X X X X #   ",
". o X X X X X X X X X X L K.}.,XY.I.j.j.t.l.h.5.7.k.I.I.I.I.I.Y.I.Y.I.I.I.Y.k.d.:.;X7X1X,X,X`.).).z.w.r.; X X X X X X X X X o   ",
". o X X X X X X X # X 4 P.b.`.Y.l.j.t.j.l.i.%.h.I.I.Y.Y.Y.Y.Y.Y.Y.Y.Y.Y.Y.|.m.I.k.%.K.,X`.`.).Y.I.I.w.r.@.O X X X X X X X X o   ",
". o X X X X X X X X $ ~ d.P.I.j.t.j.j.I.i.%.k.I.Y.Y.Y.Y.Y.Y.).Y.Y.).).].%XJ A I.Y.I.q.m.`.Y.Y.I.l.l.t.6.I.8 X X X X X X X X o   ",
". + X X X X X X X o 5 r.d.j.t.j.j.l.I.i.9.I.I.Y.Y.Y.Y.).).).).).).).].@XS h v P.Y.I.I.q.q.I.l.j.t.t.t.r.i.V.& X X X X X X X o   ",
". o X X X X X X X o ~ 0.t.j.j.l.l.I.P.%.I.Y.I.Y.).Y.).).).).).).`.|.' h x x x P.Y.Y.I.Y.7.8.j.t.t.j.j.l.q.`.9 X X X X X X X o   ",
". o X X X X X X X , h.0.j.j.l.l.I.).*.h.I.Y.Y.Y.Y.).).).).).).`.E.H u c c x c T.).Y.Y.I.I.! e.j.l.l.I.Y.k.E.N.o X X X X X X +   ",
". o X X X X X X X D i.r.l.l.I.Y.).g.q.Y.I.Y.).).).).).).).`.`.`.`.'.#.c x f x H.).Y.Y.I.I.k.5.l.I.I.Y.).].n.9X> X X X X X X o   ",
". o X X X X X X & >.w.I.I.Y.).).`.*.l.I.Y.Y.Y.).).).`.).`.`.`.`.`.`.U.c z C p *.`.).).Y.Y.I.5.a.Y.Y.).`.`.K.0XN O X X X X X o   ",
"+ o X X X X X X 7 U.8.Y.).).).`.E.q.Y.Y.Y.).).).).).).`.`.`.`.,X,X,X=.g W 3XG.H.).).Y.Y.Y.I.h.d.).).`.`.1X[.2XC.q X X X X X o   ",
". + X X X X X X m E.P.).).`.`.1X:.h.I.Y.Y.Y.).).`.`.`.`.`.,X,X,X,X(.v a J.,X{.`.).).).).Y.I.I.q.`.,X,X1X7X<X!.Q.6 X X X X X o   ",
". + X X X X X X | H.U.).`.,X,X1Xs.I.Y.Y.Y.).).).).`.OXOX5X,X1X,X1X*.d G 1XK.4.`.).).).Y.Y.Y.I.5.(.1X7X7X7X9XrX_.B X X X X X o   ",
". X X X X X X + C.G.).,X,X1X7X2Xd.I.Y.Y.Y.).).`.`.`./ ` %XfX5X7X>XT u G.7X~ v ].`.).).).Y.I.Y.i.~.7X7X9X9XaXoX_.[ X X X X X o   ",
". X X X X X X X Z.K.,X1X1X7XpX-X7.I.I.Y.).).).).`.G.c f g J @X*X4.f C 1X{.v h s.`.).).).).Y.I.k.~.9XpXpXaXpX!.E.#.X X X X X o   ",
". X X X X X X X Z.E.1X1X7X9XaXQ.7.I.Y.Y.Y.).).`.,X~ h l H i g n ^ i 3.9X;.x x Q `.).).Y.Y.Y.Y.h.J.aXpXpX9X9X!.z.#.X X X X X o   ",
"+ o X X X X X X D.~.7X9X9XpXaX/.8.I.Y.Y.Y.).).`.U.A g >.qX!.{ a u j 4X5XT h x c S.).).Y.).Y.I.h.D.aX9X9X7X7XK.h.W o X X X X o   ",
". # X X X X X X B.^.9X9XaX9XaX/.7.I.Y.Y.).).`.`.$.f j ~.1X7X7X2X{ 3.7XJ.z c c h =.`.).).Y.Y.Y.h.D.pX7X1X1X1XG.r.T o X X X X o   ",
". # X X X X X X >. XaXpX9X7X7X/.7.I.Y.Y.).).).).A h W 3X1X{.&X9X9X1X1X3XV h c x A (.).).Y.Y.I.k.~.7X1X,X,X`.g.h.F X o X X X o   ",
". # X X X X X X { A.8X9X7X7X1X[.i.I.I.Y.).Y.`.s.c i ~.K.G.4XP @X*XyXyX3X-.f c x h $.).).).Y.I.q.(.1X,X,X`.).a.k.Z X X X X X o   ",
". # X X X X X X M b.4X7X3X&XOX`.*.l.I.Y.Y.).`.Q f G 3XQ R 7X#.u n +X( :.[.j x x x T ).).Y.Y.I.$.[.,XOXOXW.Y.k.S.8 X X X X X o   ",
". X X X X X X X 5 z.[.1X.XJ ( {.u.h.Y.Y.).).a.c i :.].v x (.2Xk x x x T 3XW h c h i s.).Y.I.k.s.{.`.2.b 2.P.i.B.4 X X X X X o   ",
". o X X X X X X ; 8.G.,XH.j S P.l.5.I.I.Y.).R d l ].*.h x *.5XF f x x c S.H.u i l 1.U.Y.Y.I.i.f.`.].) p 9.h.P.} : X X X X X o   ",
". o X X X X X X O @.n.).).R.k.l.l.5.k.I.Y.Y.$.a @.).T x x A `.G.f c c f R _.@.;.(.).).Y.I.I.*.Y.Y.Y.I.i.l.0._.9 X X X X X X o   ",
". o X X X X X X X M k.k.Y.I.x.M.t.e.5.I.I.Y.).U.`.$.h c c h f.,XS g i k @.`.).`.).).Y.I.Y.i.s.Y.I.R.x.j.e.u.<X: X X X X X X #   ",
". o X X X X X X X : F.w.l.j.) ` 0.l.q.d.Y.I.Y.).).$.d c c x T _.&.C >.(.`.).).Y.Y.Y.I.Y.k.%.I.I.k.) ' t.e._.X.o X X X X X X o   ",
". o X X X X X X X X } i.e.j.J p 1.R.R.*.k.I.I.Y.Y.].l h h i V U.`.`.`.).).).).Y.Y.Y.I.I.%.h.l.l.0.p j 0.i.8X1 X X X X X X X o   ",
". o X X X X X X X X , /._ j.h.7.W.` 1.(.*.h.Y.I.Y.).1.p V $.F.).).Y.).).).Y.Y.Y.I.I.I.%.h.l.v.v.j._ 8.y.(.o.O X X X X X X X o   ",
". o X X X X X X X X X X.K.i.Y.T.` <.U.,X{.;.q.I.I.Y.I.a.).).).Y.Y.Y.Y.Y.Y.Y.Y.I.I.k.%.8.l.0.' I c.l.x.a.,X> o X X X X X X X #   ",
". o X X X X X X X X X q :XG.I.T.f.,X1X#X%X8XB.q.k.I.Y.Y.I.Y.Y.Y.Y.Y.I.Y.I.Y.I.I.d.%.r.j.j.6.P U H z.d.(.B o X X X X X X X X o   ",
". o X # X X X X X X X X 9 <Xn.`.,X>X#XY +.0XaX6X:.m.k.I.Y.I.Y.I.Y.Y.I.Y.Y.I.d.5.5.j.j.0.) I.8.J z.s.T.-.$ o X X X X X X X X o   ",
". o X X X X X X X X X X X | [.}.1X^.,.U XXaXuXiXpX^.>.d.7.z.l.l.k.l.k.i.q.9.5.r.j.v.v.j.^ 2.Y.I.n.a.k.< X X X X X X X X X X o   ",
". o X X X X X X X X X X X O } '.}.8XuXN.dXuXY ,.pXyXyX>XK.g.f.u.7.q.q.6.r.j.x.x.y.^ ^ z.I./ P.T.d.k.3 o X X X X X X X X X X o   ",
". o X X X X X X X X X X X X $ { E.oXsXdX0X+.P !.7X<.@X].`.].).].Y.I.I.M.j.e.' ) l./ 1./ ).].}.m.r.3 o o X X X X X X X X X X o   ",
". o X X X X X X X X X X X X # $ D T. X4X8X;X<.>XK.1.W E.s.*.I.) %.j._ ` 6.6.T h.R.q.K s.U.n.d.h.3 X X X X X X X X X X X X X o   ",
". # X X X X X X X X X X X X X X # M y.m. X5X1X,X&.U W ).E 7.i.l ^ j.~ E %.l./ ` s.`.U.K.f.I.>.< o X X X X X X X X X X X X X o   ",
". o X X X X X X X X # X X X X X X X 4 ~ z.b.H.(.(.g.I.I.R x.5.n b t.! J E Y.k.n.U.H.b.F.`.D & X X X X X X X X X X X X X X X #   ",
". o X X X X X X X X X X X X X X X X X $ M p.P.S.s.k.k.h.j.j.e.6._ l.l.q.P.P.T.S.H.(.,XN.7 X X X X X X X X X X X X X X X X X o   ",
". X X X X X X X X X X X X X X X X X X X X : B V.`.U.a.8.8.6.6.e.r.w.i.T.H.G./.<X9XO.6 o X X X X X X X X X X X X X X X X X X o   ",
"- X X X X X X X X X X X X X X X X X X X X X X % 7 | Z.-X1X>X_.-X>X2X<X7X8X6XC.N q o X X X X X X X X X X X X X X X X X X X X X * ",
"gXo X X X X X X X X X X X X X X X X X X X X X X X % 0 9 o.o.=X=X=XZ.C.o.X.0 q O X X X X X X X X X X X X X X X X X X X X X X X e ",
"gX+ X X X X X X X X X X X X X X X X X X X X X X X X X X X X . X X # X X . X X X X X X X X X X X X X X X X X X X X X o X X X + gX",
"gXr X X X X X X X X X X X X X X X X X X X X X X X X X X X X X X X X X X X X X X X X X X X X X X X X X X X X X X X X X X X o * gX",
"gXgXo X X X X X X X X X X X X X X X X X X X X X X X X X X X X X X X # X X X X X X X X X X X X X X X X X X X X X X X X X X @ gXgX",
"gXgXgXX X X X X X X X X X X X X X X X X X X X X X X X X X X X X X X X X X X X X X X X X X X X X X X X X X X X X X X X X X t gXgX",
"gXgXgXgXX X X X X X X X X X X X X X X X X X X X X X X X X X X X X X X X X X X X X X X X X X X X X X X X X X X X X X X X t gXgXgX",
"gXgXgXgXgX- X X X X X X X X # X X X X X X X X X X X X X X X X X X X X X X X X X X X X X X X X X X X X X X X X X X X - gXgXgXgXgX",
"gXgXgXgXgXgXgXr = X X X X X X X X X X X X X X X X X X X X X X X X X X X X X X X X X X X X X X X X X X X X X X = r gXgXgXgXgXgXgX"
};
