/* XPM */
static char *_520887196852[] = {
/* columns rows colors chars-per-pixel */
"32 32 196 2 ",
"   c #262626",
".  c #2D2B25",
"X  c #23262A",
"o  c #26282B",
"O  c #282829",
"+  c #302F25",
"@  c #3C3523",
"#  c #3E3A22",
"$  c #232B34",
"%  c #2A323E",
"&  c #4D3E1F",
"*  c #523C1E",
"=  c #433F21",
"-  c #483B20",
";  c #433521",
":  c #4F401E",
">  c #544B1F",
",  c #5A4B1D",
"<  c #57451E",
"1  c #5C541F",
"2  c #67461B",
"3  c #714F19",
"4  c #665918",
"5  c #675A1C",
"6  c #735219",
"7  c #725B19",
"8  c #7A6F18",
"9  c #73611D",
"0  c #2A3A4F",
"q  c #875716",
"w  c #AB4E01",
"e  c #A74F08",
"r  c #A54E04",
"t  c #B04E00",
"y  c #A65205",
"u  c #AD5303",
"i  c #AF5F05",
"p  c #B75D02",
"a  c #B25401",
"s  c #AE5912",
"d  c #846416",
"f  c #827518",
"g  c #837513",
"h  c #967413",
"j  c #9F7F11",
"k  c #BD6504",
"l  c #B56F06",
"z  c #B96B06",
"x  c #B26509",
"c  c #B1690A",
"v  c #BB670C",
"b  c #B97006",
"n  c #BE7609",
"m  c #BA7F0F",
"M  c #A86712",
"N  c #B76414",
"B  c #BB6515",
"V  c #BC6816",
"C  c #A37C12",
"Z  c #B47310",
"A  c #B76922",
"S  c #B57C24",
"D  c #C16A03",
"F  c #C76E0B",
"G  c #C47306",
"H  c #C87504",
"J  c #C97F05",
"K  c #C17709",
"L  c #CC7B0A",
"P  c #D6770B",
"I  c #DF7D0B",
"U  c #C87815",
"Y  c #D07E15",
"T  c #E17F0B",
"R  c #B98B0E",
"E  c #BE9A0E",
"W  c #AD9613",
"Q  c #B9A20E",
"!  c #BDA110",
"~  c #BB8326",
"^  c #CF8207",
"/  c #C4840B",
"(  c #CC830B",
")  c #C58B0B",
"_  c #D3820A",
"`  c #D48B0A",
"'  c #DD8A0C",
"]  c #DD8E04",
"[  c #C2900E",
"{  c #CA940C",
"}  c #CB980F",
"|  c #C29B0E",
" . c #DD9406",
".. c #DE950B",
"X. c #D49E09",
"o. c #DF9F09",
"O. c #D99909",
"+. c #DD8410",
"@. c #D78815",
"#. c #D89011",
"$. c #DA931E",
"%. c #E18206",
"&. c #EE8602",
"*. c #E48D07",
"=. c #EB8D05",
"-. c #E9870C",
";. c #E58C08",
":. c #EE8A0B",
">. c #F18705",
",. c #F58C03",
"<. c #FA8E02",
"1. c #F48D0A",
"2. c #EC9405",
"3. c #E19B06",
"4. c #ED9B05",
"5. c #E4920A",
"6. c #EB950C",
"7. c #E69A0E",
"8. c #EB9D08",
"9. c #E29404",
"0. c #F39504",
"q. c #FF9300",
"w. c #F49B04",
"e. c #FB9D01",
"r. c #F19209",
"t. c #FF9709",
"y. c #F09B09",
"u. c #FA9A09",
"i. c #E68818",
"p. c #E39B18",
"a. c #CAA10D",
"s. c #DEAD07",
"d. c #D7A40B",
"f. c #DBA109",
"g. c #DBAB0C",
"h. c #D0AD0B",
"j. c #CFB30D",
"k. c #D6B10F",
"l. c #DDB909",
"z. c #E5A005",
"x. c #EEA306",
"c. c #EDAC06",
"v. c #E5A40A",
"b. c #EBA30A",
"n. c #E4AA0A",
"m. c #ECAC0A",
"M. c #F2A306",
"N. c #FDA401",
"B. c #F4AB05",
"V. c #FFAC00",
"C. c #FFA00A",
"Z. c #F2AB0B",
"A. c #EDB306",
"S. c #E3B009",
"D. c #EEB40B",
"F. c #E1B908",
"G. c #ECBC0D",
"H. c #F4B405",
"J. c #FEB301",
"K. c #F5BD06",
"L. c #FEBB01",
"P. c #F2B50A",
"I. c #F0BD0A",
"U. c #FBBB0B",
"Y. c #FDB20C",
"T. c #E8AB18",
"R. c #E1A31F",
"E. c #E5B016",
"W. c #E3BF10",
"Q. c #E6B418",
"!. c #FDBE11",
"~. c #D28720",
"^. c #DCC410",
"/. c #E6C20F",
"(. c #EDC20E",
"). c #EDC90C",
"_. c #FEC401",
"`. c #FECC02",
"'. c #F6C308",
"]. c #F3CF08",
"[. c #FFCD0B",
"{. c #F6C706",
"}. c #EED00C",
"|. c #ECD407",
" X c #FDD402",
".X c #F6DA06",
"XX c #FFDD00",
"oX c #F6DE0F",
"OX c #EBC713",
"+X c #EDCC11",
"@X c #F0C511",
"#X c #FFCE15",
"$X c #F9C719",
"%X c #FFE400",
"&X c #FFE900",
"*X c None",
/* pixels */
"*X*X*X% O             O                               o % *X*X*X",
"*X*X                O O                                     0 *X",
"*X                                                          O *X",
"$                     , h ) d.n.z.O.{ C 5 .                 O $ ",
"o                 9 a.(.(.I.B.w.0.<.0.w.P.k.f .                 ",
"X             = ! OX}.]._.V.q.q.q.N.V.J.J.D.(.j.>               ",
"X           1 ^.+X X_.V.e.<.q.N.V.J.L.L._. X XOXG.7             ",
"X         , OX).`.J.e.q.q.q.w.4.4.B.K. XXX%X%XXXG.m.6         X ",
"X       @ g.I.L.N.q.q.=.=.2.e.w.w.w.2.b.).XX X`._.Z.=.*         ",
"X       m Z.V.q.q.q.;.w.N.V.V.V.V.V.V.6.0.n._.L.J.V.r.^ +       ",
"O     2 r.e.q.q.e.;.e.V.V.V.J.V.J.Y.@.v V.e.5.N.N.q.<.,.d       ",
"X   . L ,.q.e.M.6.N.V.V.J.J.J.L.7.N a p B.V.N.=.<.q.e.u.n.+   X ",
"X   , 0.e.N.J.8.w.V.V.J.J.J.L.L.K.J w y M.J.V.w.=.N.V.J.P.8     ",
"O   h w.V.J.L.6.V.V.J.J.L.L.L._._.H K n.B.J.V.V.2.J.L._.G.W     ",
"X   E B.L._.K.w.V.V.J.J.U.U.`._.P.u c.Z.L.J.J.V.w.H._. X].|     ",
"X   h.H._. XA.e.V.J.J._.` N $.$X^ b K.k B.J.J.V.w.c.XX%X.X{   X ",
"X   g.{.XX%XA.e.V.J.J.L.p l c s e S.3.w ] L.J.V.e.A.&XXX`.`   X ",
"X   d. X%X%XA.e.V.J.L.9.y I. Xs.) {.z t D J.J.V.e.A.XX`.'._     ",
"X   } .XXX Xc.e.V.J.J.k n U.D.R.#X[.( w a 4.J.V.e.D.`._.B.L     ",
"    Z '.K.p.b.w.V.J.4.r v.G m.x B U n.u w D J.V.4.H.Z.p.M.R   X ",
"X   q Z.m.v e.2.N.J.G x 8.w 9.O.w t ..n i ` V.V.4.J.` F 0.W     ",
"X   & w.N.N.t.&.w.V.4.b.H w D B.u y ( J.J.J.V.w.4.V.u.q.M.4   X ",
"O     [ 0.T V u.;.N.V.L.K w r 8.f.x.J.J.V.V.N.=.N.-.B >.s.      ",
"X     4 w.,.' ~.c.8.e.V.3.z  .B.L.J.J.V.V.N.*.0.i.:.%.x.g       ",
"X       Q M.b.P.T.E.c.w.N.V.J.V.V.V.V.V.w.-.<.,.A Y y.X.+   O   ",
"X       # s.P.'.S /.oX/.b.4.w.e.e.e.2.:.&.1.1.+.w.7.w.:         ",
"X         , n.@X|.+X~ {.Q.P.M.x.4.r.0.:.1.U ;.7.8.r.6           ",
"o         O , ..@X(.g.m.U v.8.' =.I -.P :.5.#.Z.8.3 O O       X ",
"X             ; M b.P.7.5.2.>.F I +.' 2.#.J.m.R :             $ ",
"*X                - C f.z.*.%.%.;.5.o.S.F.W >                 *X",
"*X*X        O                               O               0 *X",
"*X*X*X0 O                                               % *X*X*X"
};
